<?xml version="1.0" encoding="UTF-8"?>
<svg xmlns="http://www.w3.org/2000/svg" xmlns:xlink="http://www.w3.org/1999/xlink" width="60px" height="60px" viewBox="0 0 80 80" version="1.1">
<g id="surface1">
<path style=" stroke:none;fill-rule:nonzero;fill:rgb(18.431373%,18.039216%,25.490196%);fill-opacity:1;" d="M 57.019531 57 L 37.019531 57 L 37.019531 29.933594 L 54.3125 39.40625 Z M 57.019531 57 "/>
<path style=" stroke:none;fill-rule:nonzero;fill:rgb(100%,71.372549%,71.372549%);fill-opacity:1;" d="M 53.699219 39.238281 C 53.699219 46.410156 47.886719 52.222656 40.714844 52.222656 C 33.542969 52.222656 27.730469 46.410156 27.730469 39.238281 C 27.730469 32.066406 33.542969 26.253906 40.714844 26.253906 C 47.886719 26.253906 53.699219 32.066406 53.699219 39.238281 Z M 53.699219 39.238281 "/>
<path style=" stroke:none;fill-rule:nonzero;fill:rgb(100%,71.372549%,71.372549%);fill-opacity:1;" d="M 33.261719 54.144531 L 32.675781 48.214844 L 44.390625 46.023438 L 51.308594 62.863281 L 39.277344 76.699219 L 30.707031 59.855469 Z M 33.261719 54.144531 "/>
<path style=" stroke:none;fill-rule:nonzero;fill:rgb(96.862745%,45.490196%,7.843137%);fill-opacity:1;" d="M 68.726562 67.832031 C 68.582031 67.984375 68.433594 68.136719 68.285156 68.285156 C 67.8125 68.757812 67.332031 69.214844 66.839844 69.660156 C 59.46875 76.34375 50.015625 80 40 80 C 30.765625 80 22.007812 76.890625 14.925781 71.167969 C 14.921875 71.167969 14.917969 71.164062 14.914062 71.160156 C 14.699219 70.988281 14.484375 70.808594 14.273438 70.632812 C 14.3125 70.523438 14.351562 70.417969 14.390625 70.3125 C 16.671875 64.375 21.171875 61.472656 23.902344 60.203125 C 25.253906 59.570312 26.171875 59.339844 26.171875 59.339844 L 29.378906 53.566406 L 31.636719 57.777344 L 33.300781 60.882812 L 40.125 73.613281 L 46.011719 58.953125 L 47.835938 54.410156 L 48.300781 53.246094 L 50.527344 54.976562 L 52.632812 56.613281 L 56.871094 57.550781 L 60.308594 58.308594 L 64.980469 59.339844 C 66.871094 60.878906 68.019531 63.804688 68.660156 67.441406 C 68.683594 67.570312 68.707031 67.703125 68.726562 67.832031 Z M 68.726562 67.832031 "/>
<path style=" stroke:none;fill-rule:nonzero;fill:rgb(18.431373%,18.039216%,25.490196%);fill-opacity:1;" d="M 33.886719 24.480469 C 35.46875 21.824219 38.371094 20 41.453125 19.734375 C 44.53125 19.464844 47.710938 20.757812 49.726562 23.101562 C 50.929688 24.496094 51.71875 26.207031 52.890625 27.628906 C 55.414062 30.6875 59.714844 32.476562 60.816406 36.285156 C 61.296875 37.945312 61.054688 39.722656 60.8125 41.433594 C 60.605469 42.902344 60.394531 44.371094 60.1875 45.839844 C 60.023438 46.980469 59.871094 48.1875 60.296875 49.257812 C 60.800781 50.515625 62.003906 51.339844 62.78125 52.449219 C 64.105469 54.332031 64.007812 57.09375 62.554688 58.882812 C 61.925781 59.660156 61.089844 60.242188 60.429688 60.992188 C 59.769531 61.742188 59.28125 62.769531 59.558594 63.730469 C 60.085938 65.570312 62.972656 66.007812 63.289062 67.898438 C 63.449219 68.863281 62.78125 69.828125 61.910156 70.269531 C 61.035156 70.707031 60.007812 70.722656 59.035156 70.605469 C 55.34375 70.15625 51.925781 67.847656 50.128906 64.589844 C 48.332031 61.335938 48.199219 57.214844 49.785156 53.851562 C 51.089844 51.085938 53.515625 48.644531 53.488281 45.589844 C 53.472656 43.925781 52.710938 42.371094 51.964844 40.886719 C 50.4375 37.839844 48.90625 34.796875 47.378906 31.75 C 46.5625 30.121094 45.613281 28.363281 43.925781 27.664062 C 42.625 27.121094 41.148438 27.332031 39.753906 27.554688 C 38.363281 27.773438 36.886719 27.988281 35.582031 27.457031 C 34.277344 26.925781 33.289062 25.34375 33.910156 24.078125 "/>
<path style=" stroke:none;fill-rule:nonzero;fill:rgb(18.431373%,18.039216%,25.490196%);fill-opacity:1;" d="M 36.160156 24.621094 C 33.652344 23.792969 30.839844 25.121094 29.140625 27.144531 C 27.441406 29.164062 26.617188 31.761719 25.832031 34.28125 C 25.382812 35.726562 24.933594 37.171875 24.484375 38.617188 C 24.0625 39.972656 23.636719 41.332031 23.214844 42.691406 C 22.71875 44.289062 22.214844 45.988281 22.625 47.613281 C 22.917969 48.785156 23.679688 49.851562 23.695312 51.0625 C 23.710938 52.324219 22.921875 53.433594 22.226562 54.492188 C 21.535156 55.546875 20.882812 56.804688 21.214844 58.023438 C 21.714844 59.878906 24.296875 60.898438 24.15625 62.816406 C 24.109375 63.457031 23.738281 64.050781 23.742188 64.691406 C 23.753906 65.507812 24.390625 66.214844 25.140625 66.539062 C 25.890625 66.863281 26.730469 66.882812 27.546875 66.867188 C 30.050781 66.824219 32.550781 66.527344 34.996094 65.980469 C 35.9375 65.769531 36.894531 65.515625 37.675781 64.953125 C 38.457031 64.390625 39.042969 63.460938 38.941406 62.503906 C 38.78125 61.007812 37.175781 60.160156 36.367188 58.898438 C 35.570312 57.65625 35.589844 56.082031 35.246094 54.648438 C 34.773438 52.675781 33.609375 50.957031 32.734375 49.128906 C 29.449219 42.253906 30.597656 33.492188 35.550781 27.699219 C 35.988281 27.183594 36.464844 26.671875 36.648438 26.023438 C 36.832031 25.375 36.59375 24.546875 35.960938 24.320312 "/>
<path style=" stroke:none;fill-rule:nonzero;fill:rgb(24.705882%,23.921569%,33.72549%);fill-opacity:1;" d="M 68.285156 11.714844 C 60.730469 4.160156 50.683594 0 40 0 C 29.316406 0 19.269531 4.160156 11.714844 11.714844 C 4.160156 19.269531 0 29.316406 0 40 C 0 49.75 3.464844 58.972656 9.816406 66.25 C 10.425781 66.949219 11.058594 67.625 11.714844 68.285156 C 11.871094 68.4375 12.027344 68.59375 12.183594 68.746094 C 12.605469 69.152344 13.035156 69.550781 13.46875 69.9375 C 13.734375 70.171875 14.003906 70.40625 14.273438 70.632812 C 14.484375 70.808594 14.699219 70.988281 14.914062 71.160156 C 14.917969 71.164062 14.921875 71.167969 14.925781 71.167969 C 22.007812 76.890625 30.765625 80 40 80 C 50.015625 80 59.46875 76.34375 66.839844 69.660156 C 67.332031 69.214844 67.8125 68.757812 68.285156 68.285156 C 68.433594 68.136719 68.582031 67.984375 68.726562 67.832031 C 69.132812 67.414062 69.527344 66.988281 69.914062 66.558594 C 76.433594 59.230469 80 49.890625 80 40 C 80 29.316406 75.839844 19.269531 68.285156 11.714844 Z M 69.816406 66.183594 C 69.4375 66.609375 69.054688 67.03125 68.660156 67.441406 C 68.046875 68.082031 67.414062 68.699219 66.757812 69.296875 C 66.511719 69.527344 66.261719 69.75 66.007812 69.96875 C 63.4375 72.203125 60.582031 74.109375 57.5 75.628906 C 56.417969 76.164062 55.3125 76.648438 54.175781 77.082031 C 49.773438 78.773438 44.992188 79.699219 40 79.699219 C 35.183594 79.699219 30.5625 78.835938 26.289062 77.257812 C 24.53125 76.609375 22.835938 75.84375 21.207031 74.960938 C 20.96875 74.832031 20.730469 74.703125 20.496094 74.570312 C 19.253906 73.863281 18.050781 73.097656 16.898438 72.265625 C 16.035156 71.648438 15.199219 70.996094 14.390625 70.3125 C 14.109375 70.070312 13.832031 69.828125 13.554688 69.582031 C 13.105469 69.183594 12.667969 68.773438 12.238281 68.351562 C 11.425781 67.554688 10.652344 66.726562 9.910156 65.867188 C 3.921875 58.914062 0.300781 49.871094 0.300781 40 C 0.300781 18.109375 18.109375 0.300781 40 0.300781 C 61.890625 0.300781 79.699219 18.109375 79.699219 40 C 79.699219 50.023438 75.964844 59.191406 69.816406 66.183594 Z M 69.816406 66.183594 "/>
</g>
</svg>
