<svg xmlns="http://www.w3.org/2000/svg" xmlns:xlink="http://www.w3.org/1999/xlink" width="321" zoomAndPan="magnify" viewBox="0 0 240.75 81.749997" height="109" preserveAspectRatio="xMidYMid meet" version="1.0"><defs><g/><clipPath id="c7176aa67d"><path d="M 0.242188 2.332031 L 76.757812 2.332031 L 76.757812 78.851562 L 0.242188 78.851562 Z M 0.242188 2.332031 " clip-rule="nonzero"/></clipPath><clipPath id="846d622348"><path d="M 13.703125 2.332031 L 63.300781 2.332031 C 66.871094 2.332031 70.292969 3.75 72.816406 6.277344 C 75.339844 8.800781 76.757812 12.222656 76.757812 15.792969 L 76.757812 65.390625 C 76.757812 68.960938 75.339844 72.382812 72.816406 74.90625 C 70.292969 77.433594 66.871094 78.851562 63.300781 78.851562 L 13.703125 78.851562 C 10.132812 78.851562 6.707031 77.433594 4.183594 74.90625 C 1.660156 72.382812 0.242188 68.960938 0.242188 65.390625 L 0.242188 15.792969 C 0.242188 12.222656 1.660156 8.800781 4.183594 6.277344 C 6.707031 3.75 10.132812 2.332031 13.703125 2.332031 Z M 13.703125 2.332031 " clip-rule="nonzero"/></clipPath><clipPath id="726bf02c98"><path d="M 20 29 L 67 29 L 67 67.515625 L 20 67.515625 Z M 20 29 " clip-rule="nonzero"/></clipPath><clipPath id="3619c6ca8d"><path d="M 13 13.679688 L 52 13.679688 L 52 53 L 13 53 Z M 13 13.679688 " clip-rule="nonzero"/></clipPath></defs><g clip-path="url(#c7176aa67d)"><g clip-path="url(#846d622348)"><path fill="#0f2850" d="M 0.242188 2.332031 L 76.757812 2.332031 L 76.757812 78.851562 L 0.242188 78.851562 Z M 0.242188 2.332031 " fill-opacity="1" fill-rule="nonzero"/></g></g><g clip-path="url(#726bf02c98)"><path fill="#f77414" d="M 36.960938 67.449219 C 32.804688 67.449219 28.652344 67.472656 24.496094 67.4375 C 22.890625 67.425781 21.523438 66.386719 21.070312 64.996094 C 20.558594 63.4375 20.964844 61.714844 22.320312 60.875 C 23.089844 60.398438 24.121094 60.152344 25.035156 60.144531 C 32.523438 60.085938 40.011719 60.136719 47.5 60.097656 C 53.335938 60.066406 57.949219 56.214844 59.101562 50.515625 C 60.519531 43.511719 55.144531 36.773438 47.960938 36.660156 C 42.789062 36.578125 37.617188 36.644531 32.449219 36.636719 C 30.859375 36.636719 29.664062 35.9375 28.933594 34.515625 C 28.28125 33.238281 28.285156 31.84375 29.265625 30.871094 C 30.050781 30.085938 31.269531 29.296875 32.308594 29.28125 C 38.054688 29.183594 43.820312 29.046875 49.542969 29.445312 C 57.710938 30.015625 64.503906 36.242188 66.273438 44.214844 C 68.90625 56.074219 59.988281 67.316406 47.828125 67.445312 C 44.210938 67.480469 40.585938 67.449219 36.960938 67.449219 Z M 36.960938 67.449219 " fill-opacity="1" fill-rule="nonzero"/></g><g clip-path="url(#3619c6ca8d)"><path fill="#f77414" d="M 39.359375 51.78125 C 35.980469 51.78125 32.5625 52.117188 29.238281 51.714844 C 21.101562 50.730469 14.082031 43.253906 13.226562 35.09375 C 12.3125 26.386719 17.417969 18.066406 25.386719 15.054688 C 28.980469 13.699219 32.671875 13.691406 36.386719 13.832031 C 38.363281 13.910156 39.796875 15.617188 39.78125 17.511719 C 39.765625 19.402344 38.328125 21.015625 36.363281 21.1875 C 35.015625 21.304688 33.660156 21.230469 32.304688 21.238281 C 25.78125 21.289062 20.605469 26.183594 20.527344 32.683594 C 20.445312 39.367188 25.503906 44.300781 31.585938 44.558594 C 36.507812 44.765625 41.445312 44.625 46.371094 44.648438 C 46.949219 44.648438 47.535156 44.644531 48.105469 44.722656 C 50.054688 44.984375 51.472656 46.660156 51.359375 48.519531 C 51.242188 50.410156 49.695312 51.988281 47.769531 52.023438 C 44.96875 52.078125 42.164062 52.039062 39.359375 52.039062 C 39.359375 51.953125 39.359375 51.867188 39.359375 51.78125 Z M 39.359375 51.78125 " fill-opacity="1" fill-rule="nonzero"/></g><g fill="#f77414" fill-opacity="1"><g transform="translate(79.418085, 55.172212)"><g><path d="M 7.96875 -28.4375 C 7.320312 -27.882812 6.890625 -27.269531 6.671875 -26.59375 C 6.453125 -25.914062 6.34375 -25.195312 6.34375 -24.4375 C 6.34375 -23.675781 6.671875 -22.972656 7.328125 -22.328125 C 7.992188 -21.679688 8.867188 -21.140625 9.953125 -20.703125 C 11.035156 -20.265625 12.269531 -19.875 13.65625 -19.53125 C 15.039062 -19.195312 16.453125 -18.851562 17.890625 -18.5 C 19.328125 -18.144531 20.738281 -17.738281 22.125 -17.28125 C 23.507812 -16.820312 24.742188 -16.238281 25.828125 -15.53125 C 28.234375 -14.007812 29.4375 -11.925781 29.4375 -9.28125 C 29.4375 -6.132812 28.257812 -3.734375 25.90625 -2.078125 C 23.550781 -0.421875 20.296875 0.40625 16.140625 0.40625 C 11.429688 0.40625 7.84375 -0.570312 5.375 -2.53125 C 3.175781 -4.289062 1.925781 -6.796875 1.625 -10.046875 L 5.578125 -10.046875 C 5.710938 -7.742188 6.832031 -5.984375 8.9375 -4.765625 C 10.757812 -3.722656 13.175781 -3.203125 16.1875 -3.203125 C 22.476562 -3.203125 25.625 -5.179688 25.625 -9.140625 C 25.625 -10.492188 25.054688 -11.554688 23.921875 -12.328125 C 22.796875 -13.109375 21.378906 -13.75 19.671875 -14.25 C 17.960938 -14.757812 16.117188 -15.234375 14.140625 -15.671875 C 12.160156 -16.117188 10.316406 -16.6875 8.609375 -17.375 C 6.898438 -18.070312 5.476562 -18.988281 4.34375 -20.125 C 3.207031 -21.257812 2.640625 -22.789062 2.640625 -24.71875 C 2.640625 -27.457031 3.6875 -29.6875 5.78125 -31.40625 C 7.882812 -33.132812 11.050781 -34 15.28125 -34 C 19.539062 -34 22.835938 -33.019531 25.171875 -31.0625 C 27.304688 -29.332031 28.441406 -27.113281 28.578125 -24.40625 L 24.671875 -24.40625 C 24.328125 -27.1875 22.53125 -29.03125 19.28125 -29.9375 C 18.132812 -30.28125 16.707031 -30.453125 15 -30.453125 C 13.289062 -30.453125 11.851562 -30.253906 10.6875 -29.859375 C 9.519531 -29.472656 8.613281 -29 7.96875 -28.4375 Z M 7.96875 -28.4375 "/></g></g></g><g fill="#f77414" fill-opacity="1"><g transform="translate(114.936913, 55.172212)"><g><path d="M 19.03125 -34 C 24.039062 -34 28.148438 -32.328125 31.359375 -28.984375 C 34.503906 -25.734375 36.078125 -21.671875 36.078125 -16.796875 C 36.078125 -11.921875 34.503906 -7.863281 31.359375 -4.625 C 28.148438 -1.269531 24.039062 0.40625 19.03125 0.40625 C 14.019531 0.40625 9.910156 -1.269531 6.703125 -4.625 C 3.554688 -7.863281 1.984375 -11.921875 1.984375 -16.796875 C 1.984375 -21.671875 3.554688 -25.734375 6.703125 -28.984375 C 9.910156 -32.328125 14.019531 -34 19.03125 -34 Z M 19.03125 -3.296875 C 23.019531 -3.296875 26.25 -4.597656 28.71875 -7.203125 C 31.09375 -9.710938 32.28125 -12.910156 32.28125 -16.796875 C 32.28125 -20.691406 31.09375 -23.890625 28.71875 -26.390625 C 26.25 -28.992188 23.019531 -30.296875 19.03125 -30.296875 C 15.039062 -30.296875 11.8125 -28.992188 9.34375 -26.390625 C 6.96875 -23.890625 5.78125 -20.691406 5.78125 -16.796875 C 5.78125 -12.910156 6.96875 -9.710938 9.34375 -7.203125 C 11.8125 -4.597656 15.039062 -3.296875 19.03125 -3.296875 Z M 19.03125 -3.296875 "/></g></g></g><g fill="#f77414" fill-opacity="1"><g transform="translate(157.305563, 55.172212)"><g><path d="M 7.921875 -33.59375 L 7.921875 -3.65625 L 26.234375 -3.65625 L 26.234375 0 L 4.109375 0 L 4.109375 -33.59375 Z M 7.921875 -33.59375 "/></g></g></g><g fill="#f77414" fill-opacity="1"><g transform="translate(188.663768, 55.172212)"><g><path d="M 19.03125 -34 C 24.039062 -34 28.148438 -32.328125 31.359375 -28.984375 C 34.503906 -25.734375 36.078125 -21.671875 36.078125 -16.796875 C 36.078125 -11.921875 34.503906 -7.863281 31.359375 -4.625 C 28.148438 -1.269531 24.039062 0.40625 19.03125 0.40625 C 14.019531 0.40625 9.910156 -1.269531 6.703125 -4.625 C 3.554688 -7.863281 1.984375 -11.921875 1.984375 -16.796875 C 1.984375 -21.671875 3.554688 -25.734375 6.703125 -28.984375 C 9.910156 -32.328125 14.019531 -34 19.03125 -34 Z M 19.03125 -3.296875 C 23.019531 -3.296875 26.25 -4.597656 28.71875 -7.203125 C 31.09375 -9.710938 32.28125 -12.910156 32.28125 -16.796875 C 32.28125 -20.691406 31.09375 -23.890625 28.71875 -26.390625 C 26.25 -28.992188 23.019531 -30.296875 19.03125 -30.296875 C 15.039062 -30.296875 11.8125 -28.992188 9.34375 -26.390625 C 6.96875 -23.890625 5.78125 -20.691406 5.78125 -16.796875 C 5.78125 -12.910156 6.96875 -9.710938 9.34375 -7.203125 C 11.8125 -4.597656 15.039062 -3.296875 19.03125 -3.296875 Z M 19.03125 -3.296875 "/></g></g></g></svg>