<svg xmlns="http://www.w3.org/2000/svg" xmlns:xlink="http://www.w3.org/1999/xlink" width="261" zoomAndPan="magnify" viewBox="0 0 195.75 72" height="96" preserveAspectRatio="xMidYMid meet" version="1.0"><defs><g/><clipPath id="aa92be0cad"><path d="M 0 10.417969 L 50.199219 10.417969 L 50.199219 60.617188 L 0 60.617188 Z M 0 10.417969 " clip-rule="nonzero"/></clipPath><clipPath id="c3871c34b1"><path d="M 13.484375 10.417969 L 36.714844 10.417969 C 44.164062 10.417969 50.199219 16.453125 50.199219 23.902344 L 50.199219 47.132812 C 50.199219 54.582031 44.164062 60.617188 36.714844 60.617188 L 13.484375 60.617188 C 6.035156 60.617188 0 54.582031 0 47.132812 L 0 23.902344 C 0 16.453125 6.035156 10.417969 13.484375 10.417969 Z M 13.484375 10.417969 " clip-rule="nonzero"/></clipPath><clipPath id="2237678a13"><path d="M 12 27 L 47 27 L 47 55.699219 L 12 55.699219 Z M 12 27 " clip-rule="nonzero"/></clipPath><clipPath id="b2e606f210"><path d="M 6.039062 16 L 35 16 L 35 45 L 6.039062 45 Z M 6.039062 16 " clip-rule="nonzero"/></clipPath><clipPath id="4ffcea4ba0"><path d="M 15 27 L 44 27 L 44 55.523438 L 15 55.523438 Z M 15 27 " clip-rule="nonzero"/></clipPath></defs><g clip-path="url(#aa92be0cad)"><g clip-path="url(#c3871c34b1)"><path fill="#0f2850" d="M 0 10.417969 L 50.199219 10.417969 L 50.199219 60.617188 L 0 60.617188 Z M 0 10.417969 " fill-opacity="1" fill-rule="nonzero"/></g></g><g fill="#f77414" fill-opacity="1"><g transform="translate(53.745861, 51.8681)"><g><path d="M 13.234375 0.4375 C 11.328125 0.4375 9.617188 0.175781 8.109375 -0.34375 C 6.597656 -0.863281 5.335938 -1.539062 4.328125 -2.375 C 3.316406 -3.21875 2.566406 -4.144531 2.078125 -5.15625 L 4.015625 -7.515625 L 4.53125 -7.515625 C 6.40625 -4.359375 9.304688 -2.78125 13.234375 -2.78125 C 15.503906 -2.78125 17.195312 -3.253906 18.3125 -4.203125 C 19.425781 -5.148438 19.984375 -6.472656 19.984375 -8.171875 C 19.984375 -9.171875 19.800781 -10.015625 19.4375 -10.703125 C 19.070312 -11.390625 18.46875 -11.976562 17.625 -12.46875 C 16.78125 -12.957031 15.632812 -13.382812 14.1875 -13.75 L 10.640625 -14.625 C 8.003906 -15.257812 6.0625 -16.269531 4.8125 -17.65625 C 3.5625 -19.039062 2.9375 -20.796875 2.9375 -22.921875 C 2.9375 -24.421875 3.320312 -25.757812 4.09375 -26.9375 C 4.875 -28.125 6.007812 -29.046875 7.5 -29.703125 C 8.988281 -30.367188 10.769531 -30.703125 12.84375 -30.703125 C 15.113281 -30.703125 17.03125 -30.378906 18.59375 -29.734375 C 20.164062 -29.097656 21.421875 -28.140625 22.359375 -26.859375 L 20.625 -24.515625 L 20.109375 -24.515625 C 19.234375 -25.578125 18.203125 -26.351562 17.015625 -26.84375 C 15.828125 -27.34375 14.4375 -27.59375 12.84375 -27.59375 C 10.738281 -27.59375 9.148438 -27.1875 8.078125 -26.375 C 7.015625 -25.5625 6.484375 -24.4375 6.484375 -23 C 6.484375 -21.632812 6.875 -20.546875 7.65625 -19.734375 C 8.445312 -18.929688 9.773438 -18.3125 11.640625 -17.875 L 15.265625 -17 C 18.203125 -16.3125 20.328125 -15.25 21.640625 -13.8125 C 22.960938 -12.382812 23.625 -10.5625 23.625 -8.34375 C 23.625 -6.632812 23.238281 -5.117188 22.46875 -3.796875 C 21.707031 -2.484375 20.546875 -1.445312 18.984375 -0.6875 C 17.421875 0.0625 15.503906 0.4375 13.234375 0.4375 Z M 13.234375 0.4375 "/></g></g></g><g fill="#f77414" fill-opacity="1"><g transform="translate(83.294058, 51.8681)"><g><path d="M 16.609375 0.4375 C 13.984375 0.4375 11.648438 -0.128906 9.609375 -1.265625 C 7.566406 -2.398438 5.957031 -4.128906 4.78125 -6.453125 C 3.601562 -8.773438 3.015625 -11.671875 3.015625 -15.140625 C 3.015625 -18.597656 3.601562 -21.488281 4.78125 -23.8125 C 5.957031 -26.144531 7.566406 -27.875 9.609375 -29 C 11.648438 -30.132812 13.984375 -30.703125 16.609375 -30.703125 C 19.234375 -30.703125 21.566406 -30.132812 23.609375 -29 C 25.648438 -27.875 27.253906 -26.144531 28.421875 -23.8125 C 29.597656 -21.488281 30.1875 -18.597656 30.1875 -15.140625 C 30.1875 -11.671875 29.597656 -8.773438 28.421875 -6.453125 C 27.253906 -4.128906 25.648438 -2.398438 23.609375 -1.265625 C 21.566406 -0.128906 19.234375 0.4375 16.609375 0.4375 Z M 16.609375 -2.859375 C 19.753906 -2.859375 22.164062 -3.84375 23.84375 -5.8125 C 25.53125 -7.78125 26.375 -10.890625 26.375 -15.140625 C 26.375 -19.390625 25.53125 -22.5 23.84375 -24.46875 C 22.164062 -26.4375 19.753906 -27.421875 16.609375 -27.421875 C 10.085938 -27.421875 6.828125 -23.328125 6.828125 -15.140625 C 6.828125 -6.953125 10.085938 -2.859375 16.609375 -2.859375 Z M 16.609375 -2.859375 "/></g></g></g><g fill="#f77414" fill-opacity="1"><g transform="translate(120.10954, 51.8681)"><g><path d="M 8.140625 -30.265625 L 8.140625 -2.9375 L 22.71875 -2.9375 L 22.71875 0 L 4.578125 0 L 4.578125 -30.265625 Z M 8.140625 -30.265625 "/></g></g></g><g fill="#f77414" fill-opacity="1"><g transform="translate(147.711511, 51.8681)"><g><path d="M 16.609375 0.4375 C 13.984375 0.4375 11.648438 -0.128906 9.609375 -1.265625 C 7.566406 -2.398438 5.957031 -4.128906 4.78125 -6.453125 C 3.601562 -8.773438 3.015625 -11.671875 3.015625 -15.140625 C 3.015625 -18.597656 3.601562 -21.488281 4.78125 -23.8125 C 5.957031 -26.144531 7.566406 -27.875 9.609375 -29 C 11.648438 -30.132812 13.984375 -30.703125 16.609375 -30.703125 C 19.234375 -30.703125 21.566406 -30.132812 23.609375 -29 C 25.648438 -27.875 27.253906 -26.144531 28.421875 -23.8125 C 29.597656 -21.488281 30.1875 -18.597656 30.1875 -15.140625 C 30.1875 -11.671875 29.597656 -8.773438 28.421875 -6.453125 C 27.253906 -4.128906 25.648438 -2.398438 23.609375 -1.265625 C 21.566406 -0.128906 19.234375 0.4375 16.609375 0.4375 Z M 16.609375 -2.859375 C 19.753906 -2.859375 22.164062 -3.84375 23.84375 -5.8125 C 25.53125 -7.78125 26.375 -10.890625 26.375 -15.140625 C 26.375 -19.390625 25.53125 -22.5 23.84375 -24.46875 C 22.164062 -26.4375 19.753906 -27.421875 16.609375 -27.421875 C 10.085938 -27.421875 6.828125 -23.328125 6.828125 -15.140625 C 6.828125 -6.953125 10.085938 -2.859375 16.609375 -2.859375 Z M 16.609375 -2.859375 "/></g></g></g><g clip-path="url(#2237678a13)"><path fill="#f77414" d="M 24.140625 55.488281 C 21.089844 55.488281 18.039062 55.503906 14.984375 55.476562 C 13.808594 55.46875 12.804688 54.707031 12.46875 53.683594 C 12.09375 52.539062 12.394531 51.277344 13.390625 50.65625 C 13.953125 50.308594 14.710938 50.128906 15.382812 50.121094 C 20.882812 50.078125 26.382812 50.117188 31.882812 50.085938 C 36.167969 50.066406 39.550781 47.238281 40.398438 43.050781 C 41.441406 37.90625 37.492188 32.957031 32.21875 32.875 C 28.421875 32.816406 24.625 32.863281 20.828125 32.859375 C 19.660156 32.859375 18.78125 32.34375 18.246094 31.300781 C 17.765625 30.363281 17.769531 29.335938 18.488281 28.625 C 19.066406 28.046875 19.960938 27.46875 20.722656 27.457031 C 24.941406 27.386719 29.175781 27.285156 33.378906 27.578125 C 39.378906 27.996094 44.367188 32.570312 45.667969 38.425781 C 47.601562 47.132812 41.050781 55.390625 32.121094 55.484375 C 29.464844 55.511719 26.800781 55.488281 24.140625 55.488281 Z M 24.140625 55.488281 " fill-opacity="1" fill-rule="nonzero"/></g><g clip-path="url(#b2e606f210)"><path fill="#f77414" d="M 25.902344 43.980469 C 23.421875 43.980469 20.910156 44.226562 18.46875 43.929688 C 12.492188 43.207031 7.339844 37.71875 6.710938 31.726562 C 6.039062 25.328125 9.789062 19.222656 15.640625 17.011719 C 18.277344 16.015625 20.992188 16.007812 23.71875 16.113281 C 25.171875 16.167969 26.222656 17.421875 26.210938 18.8125 C 26.199219 20.203125 25.144531 21.386719 23.699219 21.511719 C 22.710938 21.597656 21.714844 21.542969 20.71875 21.550781 C 15.929688 21.585938 12.128906 25.179688 12.070312 29.957031 C 12.011719 34.863281 15.726562 38.488281 20.195312 38.675781 C 23.808594 38.828125 27.433594 38.726562 31.050781 38.742188 C 31.476562 38.742188 31.90625 38.738281 32.324219 38.796875 C 33.757812 38.988281 34.796875 40.21875 34.714844 41.585938 C 34.628906 42.972656 33.492188 44.132812 32.078125 44.160156 C 30.019531 44.199219 27.960938 44.167969 25.902344 44.167969 C 25.902344 44.105469 25.902344 44.042969 25.902344 43.980469 Z M 25.902344 43.980469 " fill-opacity="1" fill-rule="nonzero"/></g><path fill="#f77414" d="M 26.050781 16.039062 C 29.105469 16.039062 32.15625 16.023438 35.207031 16.046875 C 36.386719 16.054688 37.390625 16.820312 37.722656 17.839844 C 38.097656 18.984375 37.800781 20.25 36.804688 20.867188 C 36.238281 21.21875 35.484375 21.398438 34.808594 21.402344 C 29.308594 21.445312 23.8125 21.410156 18.3125 21.4375 C 14.027344 21.460938 10.640625 24.289062 9.792969 28.472656 C 8.75 33.617188 12.699219 38.566406 17.976562 38.648438 C 21.769531 38.707031 25.570312 38.660156 29.367188 38.664062 C 30.535156 38.667969 31.410156 39.179688 31.945312 40.226562 C 32.425781 41.160156 32.425781 42.1875 31.703125 42.902344 C 31.125 43.476562 30.230469 44.054688 29.46875 44.070312 C 25.25 44.140625 21.015625 44.238281 16.8125 43.945312 C 10.8125 43.527344 5.824219 38.953125 4.527344 33.101562 C 2.59375 24.394531 9.140625 16.132812 18.070312 16.039062 C 20.730469 16.015625 23.390625 16.039062 26.050781 16.039062 Z M 26.050781 16.039062 " fill-opacity="1" fill-rule="nonzero"/><g clip-path="url(#4ffcea4ba0)"><path fill="#f77414" d="M 24.292969 27.542969 C 26.773438 27.542969 29.28125 27.296875 31.726562 27.59375 C 37.699219 28.316406 42.851562 33.804688 43.480469 39.800781 C 44.152344 46.195312 40.402344 52.304688 34.550781 54.515625 C 31.914062 55.511719 29.203125 55.519531 26.476562 55.414062 C 25.023438 55.355469 23.96875 54.101562 23.980469 52.710938 C 23.992188 51.324219 25.046875 50.136719 26.492188 50.011719 C 27.480469 49.925781 28.476562 49.980469 29.472656 49.972656 C 34.261719 49.9375 38.0625 46.34375 38.121094 41.570312 C 38.179688 36.660156 34.464844 33.035156 30 32.847656 C 26.386719 32.699219 22.761719 32.800781 19.140625 32.785156 C 18.714844 32.78125 18.285156 32.785156 17.867188 32.730469 C 16.4375 32.535156 15.394531 31.304688 15.480469 29.9375 C 15.566406 28.550781 16.699219 27.394531 18.113281 27.367188 C 20.171875 27.324219 22.230469 27.355469 24.289062 27.355469 C 24.289062 27.417969 24.289062 27.480469 24.292969 27.542969 Z M 24.292969 27.542969 " fill-opacity="1" fill-rule="nonzero"/></g></svg>