<svg xmlns="http://www.w3.org/2000/svg" xmlns:xlink="http://www.w3.org/1999/xlink" width="366" zoomAndPan="magnify" viewBox="0 0 274.5 91.5" height="122" preserveAspectRatio="xMidYMid meet" version="1.0"><defs><g/><clipPath id="d3f0d49b28"><path d="M 5.164062 11.53125 L 53.171875 11.53125 L 53.171875 59.539062 L 5.164062 59.539062 Z M 5.164062 11.53125 " clip-rule="nonzero"/></clipPath><clipPath id="ba966fd71f"><path d="M 29.167969 11.53125 C 15.910156 11.53125 5.164062 22.277344 5.164062 35.535156 C 5.164062 48.789062 15.910156 59.539062 29.167969 59.539062 C 42.421875 59.539062 53.171875 48.789062 53.171875 35.535156 C 53.171875 22.277344 42.421875 11.53125 29.167969 11.53125 Z M 29.167969 11.53125 " clip-rule="nonzero"/></clipPath><clipPath id="4193b9d2ac"><path d="M 1 11.53125 L 50 11.53125 L 50 60 L 1 60 Z M 1 11.53125 " clip-rule="nonzero"/></clipPath></defs><g clip-path="url(#d3f0d49b28)"><g clip-path="url(#ba966fd71f)"><path fill="#ffde59" d="M 5.164062 11.53125 L 53.171875 11.53125 L 53.171875 59.539062 L 5.164062 59.539062 Z M 5.164062 11.53125 " fill-opacity="1" fill-rule="nonzero"/></g></g><path fill="#f77414" d="M 31.363281 78.859375 C 26.160156 78.859375 20.957031 78.886719 15.753906 78.84375 C 13.746094 78.828125 12.035156 77.527344 11.464844 75.785156 C 10.824219 73.832031 11.332031 71.675781 13.03125 70.621094 C 13.992188 70.027344 15.285156 69.71875 16.429688 69.710938 C 25.808594 69.636719 35.183594 69.699219 44.5625 69.652344 C 51.871094 69.613281 57.644531 64.792969 59.089844 57.652344 C 60.867188 48.882812 54.132812 40.441406 45.136719 40.304688 C 38.664062 40.203125 32.1875 40.285156 25.714844 40.277344 C 23.722656 40.273438 22.226562 39.394531 21.3125 37.617188 C 20.496094 36.019531 20.5 34.269531 21.726562 33.050781 C 22.714844 32.070312 24.238281 31.085938 25.539062 31.0625 C 32.734375 30.941406 39.953125 30.769531 47.121094 31.269531 C 57.347656 31.984375 65.855469 39.78125 68.070312 49.761719 C 71.367188 64.609375 60.199219 78.691406 44.972656 78.851562 C 40.441406 78.898438 35.902344 78.859375 31.363281 78.859375 Z M 31.363281 78.859375 " fill-opacity="1" fill-rule="nonzero"/><g clip-path="url(#4193b9d2ac)"><path fill="#f77414" d="M 34.367188 59.238281 C 30.136719 59.238281 25.855469 59.660156 21.691406 59.15625 C 11.503906 57.921875 2.714844 48.5625 1.644531 38.339844 C 0.5 27.4375 6.894531 17.019531 16.871094 13.25 C 21.371094 11.550781 25.992188 11.539062 30.644531 11.71875 C 33.121094 11.816406 34.914062 13.953125 34.894531 16.324219 C 34.878906 18.691406 33.078125 20.714844 30.613281 20.929688 C 28.929688 21.074219 27.230469 20.980469 25.53125 20.992188 C 17.363281 21.054688 10.886719 27.183594 10.785156 35.324219 C 10.683594 43.691406 17.019531 49.871094 24.636719 50.191406 C 30.796875 50.449219 36.976562 50.277344 43.148438 50.304688 C 43.875 50.304688 44.605469 50.300781 45.320312 50.398438 C 47.761719 50.726562 49.539062 52.828125 49.394531 55.152344 C 49.246094 57.519531 47.308594 59.496094 44.898438 59.542969 C 41.390625 59.613281 37.878906 59.5625 34.367188 59.5625 C 34.367188 59.453125 34.367188 59.34375 34.367188 59.238281 Z M 34.367188 59.238281 " fill-opacity="1" fill-rule="nonzero"/></g><g fill="#f77414" fill-opacity="1"><g transform="translate(80.18473, 61.473195)"><g><path d="M 8.875 -31.6875 C 8.15625 -31.070312 7.671875 -30.382812 7.421875 -29.625 C 7.179688 -28.875 7.0625 -28.070312 7.0625 -27.21875 C 7.0625 -26.375 7.429688 -25.59375 8.171875 -24.875 C 8.910156 -24.164062 9.878906 -23.566406 11.078125 -23.078125 C 12.285156 -22.585938 13.660156 -22.148438 15.203125 -21.765625 C 16.753906 -21.390625 18.332031 -21.003906 19.9375 -20.609375 C 21.539062 -20.210938 23.113281 -19.757812 24.65625 -19.25 C 26.195312 -18.738281 27.570312 -18.085938 28.78125 -17.296875 C 31.457031 -15.609375 32.796875 -13.289062 32.796875 -10.34375 C 32.796875 -6.84375 31.484375 -4.164062 28.859375 -2.3125 C 26.242188 -0.46875 22.617188 0.453125 17.984375 0.453125 C 12.742188 0.453125 8.75 -0.640625 6 -2.828125 C 3.539062 -4.785156 2.144531 -7.578125 1.8125 -11.203125 L 6.21875 -11.203125 C 6.375 -8.628906 7.617188 -6.664062 9.953125 -5.3125 C 11.984375 -4.144531 14.675781 -3.5625 18.03125 -3.5625 C 25.050781 -3.5625 28.5625 -5.765625 28.5625 -10.171875 C 28.5625 -11.679688 27.925781 -12.867188 26.65625 -13.734375 C 25.394531 -14.609375 23.8125 -15.328125 21.90625 -15.890625 C 20.007812 -16.453125 17.957031 -16.976562 15.75 -17.46875 C 13.539062 -17.957031 11.484375 -18.585938 9.578125 -19.359375 C 7.679688 -20.140625 6.097656 -21.160156 4.828125 -22.421875 C 3.566406 -23.679688 2.9375 -25.382812 2.9375 -27.53125 C 2.9375 -30.59375 4.101562 -33.082031 6.4375 -35 C 8.78125 -36.925781 12.304688 -37.890625 17.015625 -37.890625 C 21.765625 -37.890625 25.441406 -36.796875 28.046875 -34.609375 C 30.421875 -32.679688 31.679688 -30.210938 31.828125 -27.203125 L 27.484375 -27.203125 C 27.109375 -30.285156 25.109375 -32.335938 21.484375 -33.359375 C 20.203125 -33.734375 18.609375 -33.921875 16.703125 -33.921875 C 14.804688 -33.921875 13.207031 -33.703125 11.90625 -33.265625 C 10.601562 -32.835938 9.59375 -32.3125 8.875 -31.6875 Z M 8.875 -31.6875 "/></g></g></g><g fill="#f77414" fill-opacity="1"><g transform="translate(119.76001, 61.473195)"><g><path d="M 21.203125 -37.890625 C 26.785156 -37.890625 31.367188 -36.019531 34.953125 -32.28125 C 38.453125 -28.664062 40.203125 -24.144531 40.203125 -18.71875 C 40.203125 -13.289062 38.453125 -8.765625 34.953125 -5.140625 C 31.367188 -1.410156 26.785156 0.453125 21.203125 0.453125 C 15.628906 0.453125 11.050781 -1.410156 7.46875 -5.140625 C 3.957031 -8.765625 2.203125 -13.289062 2.203125 -18.71875 C 2.203125 -24.144531 3.957031 -28.664062 7.46875 -32.28125 C 11.050781 -36.019531 15.628906 -37.890625 21.203125 -37.890625 Z M 21.203125 -3.671875 C 25.648438 -3.671875 29.25 -5.125 32 -8.03125 C 34.644531 -10.820312 35.96875 -14.382812 35.96875 -18.71875 C 35.96875 -23.050781 34.644531 -26.613281 32 -29.40625 C 29.25 -32.3125 25.648438 -33.765625 21.203125 -33.765625 C 16.753906 -33.765625 13.15625 -32.3125 10.40625 -29.40625 C 7.769531 -26.613281 6.453125 -23.050781 6.453125 -18.71875 C 6.453125 -14.382812 7.769531 -10.820312 10.40625 -8.03125 C 13.15625 -5.125 16.753906 -3.671875 21.203125 -3.671875 Z M 21.203125 -3.671875 "/></g></g></g><g fill="#f77414" fill-opacity="1"><g transform="translate(166.9674, 61.473195)"><g><path d="M 8.828125 -37.4375 L 8.828125 -4.078125 L 29.234375 -4.078125 L 29.234375 0 L 4.578125 0 L 4.578125 -37.4375 Z M 8.828125 -37.4375 "/></g></g></g><g fill="#f77414" fill-opacity="1"><g transform="translate(201.90689, 61.473195)"><g><path d="M 21.203125 -37.890625 C 26.785156 -37.890625 31.367188 -36.019531 34.953125 -32.28125 C 38.453125 -28.664062 40.203125 -24.144531 40.203125 -18.71875 C 40.203125 -13.289062 38.453125 -8.765625 34.953125 -5.140625 C 31.367188 -1.410156 26.785156 0.453125 21.203125 0.453125 C 15.628906 0.453125 11.050781 -1.410156 7.46875 -5.140625 C 3.957031 -8.765625 2.203125 -13.289062 2.203125 -18.71875 C 2.203125 -24.144531 3.957031 -28.664062 7.46875 -32.28125 C 11.050781 -36.019531 15.628906 -37.890625 21.203125 -37.890625 Z M 21.203125 -3.671875 C 25.648438 -3.671875 29.25 -5.125 32 -8.03125 C 34.644531 -10.820312 35.96875 -14.382812 35.96875 -18.71875 C 35.96875 -23.050781 34.644531 -26.613281 32 -29.40625 C 29.25 -32.3125 25.648438 -33.765625 21.203125 -33.765625 C 16.753906 -33.765625 13.15625 -32.3125 10.40625 -29.40625 C 7.769531 -26.613281 6.453125 -23.050781 6.453125 -18.71875 C 6.453125 -14.382812 7.769531 -10.820312 10.40625 -8.03125 C 13.15625 -5.125 16.753906 -3.671875 21.203125 -3.671875 Z M 21.203125 -3.671875 "/></g></g></g></svg>