<svg xmlns="http://www.w3.org/2000/svg" xmlns:xlink="http://www.w3.org/1999/xlink" width="1920" zoomAndPan="magnify" viewBox="0 0 1440 809.999993" height="1080" preserveAspectRatio="xMidYMid meet" version="1.0"><defs><g/><clipPath id="296b5a1d7d"><path d="M 593.546875 370.9375 L 641.816406 370.9375 L 641.816406 419.207031 L 593.546875 419.207031 Z M 593.546875 370.9375 " clip-rule="nonzero"/></clipPath><clipPath id="40ef745b75"><path d="M 617.679688 370.9375 C 604.351562 370.9375 593.546875 381.742188 593.546875 395.070312 C 593.546875 408.402344 604.351562 419.207031 617.679688 419.207031 C 631.007812 419.207031 641.816406 408.402344 641.816406 395.070312 C 641.816406 381.742188 631.007812 370.9375 617.679688 370.9375 Z M 617.679688 370.9375 " clip-rule="nonzero"/></clipPath><clipPath id="650f9e8412"><path d="M 599 390 L 658 390 L 658 438.789062 L 599 438.789062 Z M 599 390 " clip-rule="nonzero"/></clipPath></defs><g clip-path="url(#296b5a1d7d)"><g clip-path="url(#40ef745b75)"><path fill="#ffde59" d="M 593.546875 370.9375 L 641.816406 370.9375 L 641.816406 419.207031 L 593.546875 419.207031 Z M 593.546875 370.9375 " fill-opacity="1" fill-rule="nonzero"/></g></g><g clip-path="url(#650f9e8412)"><path fill="#f77414" d="M 619.890625 438.632812 C 614.660156 438.632812 609.425781 438.660156 604.191406 438.617188 C 602.175781 438.601562 600.453125 437.292969 599.878906 435.542969 C 599.238281 433.582031 599.75 431.414062 601.457031 430.351562 C 602.425781 429.753906 603.722656 429.445312 604.875 429.433594 C 614.304688 429.359375 623.730469 429.425781 633.160156 429.375 C 640.507812 429.339844 646.3125 424.488281 647.765625 417.3125 C 649.554688 408.492188 642.78125 400.007812 633.738281 399.867188 C 627.230469 399.765625 620.71875 399.847656 614.210938 399.839844 C 612.207031 399.835938 610.703125 398.957031 609.785156 397.164062 C 608.964844 395.558594 608.964844 393.800781 610.199219 392.578125 C 611.191406 391.589844 612.722656 390.597656 614.035156 390.574219 C 621.265625 390.453125 628.523438 390.28125 635.730469 390.785156 C 646.015625 391.5 654.566406 399.34375 656.796875 409.378906 C 660.109375 424.308594 648.882812 438.46875 633.574219 438.628906 C 629.015625 438.671875 624.453125 438.632812 619.890625 438.632812 Z M 619.890625 438.632812 " fill-opacity="1" fill-rule="nonzero"/></g><path fill="#f77414" d="M 622.90625 418.90625 C 618.65625 418.90625 614.351562 419.328125 610.164062 418.820312 C 599.921875 417.582031 591.085938 408.171875 590.007812 397.894531 C 588.855469 386.929688 595.285156 376.457031 605.316406 372.667969 C 609.839844 370.957031 614.488281 370.945312 619.164062 371.128906 C 621.65625 371.222656 623.457031 373.371094 623.441406 375.757812 C 623.421875 378.136719 621.613281 380.171875 619.136719 380.386719 C 617.441406 380.53125 615.730469 380.441406 614.027344 380.453125 C 605.8125 380.511719 599.296875 386.675781 599.199219 394.859375 C 599.097656 403.273438 605.464844 409.488281 613.125 409.808594 C 619.320312 410.070312 625.535156 409.898438 631.738281 409.921875 C 632.46875 409.925781 633.203125 409.921875 633.921875 410.015625 C 636.375 410.347656 638.164062 412.460938 638.019531 414.800781 C 637.871094 417.179688 635.921875 419.164062 633.496094 419.210938 C 629.96875 419.28125 626.4375 419.230469 622.910156 419.230469 C 622.910156 419.121094 622.910156 419.011719 622.90625 418.90625 Z M 622.90625 418.90625 " fill-opacity="1" fill-rule="nonzero"/><g fill="#f77414" fill-opacity="1"><g transform="translate(668.977007, 421.153131)"><g><path d="M 8.921875 -31.875 C 8.203125 -31.25 7.71875 -30.554688 7.46875 -29.796875 C 7.226562 -29.035156 7.109375 -28.226562 7.109375 -27.375 C 7.109375 -26.519531 7.476562 -25.734375 8.21875 -25.015625 C 8.957031 -24.296875 9.929688 -23.6875 11.140625 -23.1875 C 12.359375 -22.695312 13.742188 -22.265625 15.296875 -21.890625 C 16.847656 -21.515625 18.425781 -21.125 20.03125 -20.71875 C 21.644531 -20.320312 23.226562 -19.867188 24.78125 -19.359375 C 26.34375 -18.847656 27.726562 -18.195312 28.9375 -17.40625 C 31.632812 -15.695312 32.984375 -13.363281 32.984375 -10.40625 C 32.984375 -6.882812 31.664062 -4.191406 29.03125 -2.328125 C 26.394531 -0.472656 22.742188 0.453125 18.078125 0.453125 C 12.804688 0.453125 8.789062 -0.644531 6.03125 -2.84375 C 3.5625 -4.8125 2.15625 -7.617188 1.8125 -11.265625 L 6.25 -11.265625 C 6.40625 -8.679688 7.65625 -6.707031 10 -5.34375 C 12.050781 -4.164062 14.765625 -3.578125 18.140625 -3.578125 C 25.191406 -3.578125 28.71875 -5.796875 28.71875 -10.234375 C 28.71875 -11.753906 28.082031 -12.945312 26.8125 -13.8125 C 25.539062 -14.6875 23.945312 -15.40625 22.03125 -15.96875 C 20.113281 -16.539062 18.046875 -17.070312 15.828125 -17.5625 C 13.617188 -18.0625 11.554688 -18.695312 9.640625 -19.46875 C 7.722656 -20.25 6.128906 -21.273438 4.859375 -22.546875 C 3.585938 -23.816406 2.953125 -25.53125 2.953125 -27.6875 C 2.953125 -30.757812 4.125 -33.257812 6.46875 -35.1875 C 8.820312 -37.125 12.367188 -38.09375 17.109375 -38.09375 C 21.890625 -38.09375 25.585938 -36.992188 28.203125 -34.796875 C 30.585938 -32.859375 31.859375 -30.375 32.015625 -27.34375 L 27.640625 -27.34375 C 27.253906 -30.457031 25.242188 -32.523438 21.609375 -33.546875 C 20.316406 -33.921875 18.710938 -34.109375 16.796875 -34.109375 C 14.890625 -34.109375 13.28125 -33.890625 11.96875 -33.453125 C 10.65625 -33.023438 9.640625 -32.5 8.921875 -31.875 Z M 8.921875 -31.875 "/></g></g></g><g fill="#f77414" fill-opacity="1"><g transform="translate(708.768545, 421.153131)"><g><path d="M 21.328125 -38.09375 C 26.929688 -38.09375 31.535156 -36.21875 35.140625 -32.46875 C 38.660156 -28.832031 40.421875 -24.28125 40.421875 -18.8125 C 40.421875 -13.351562 38.660156 -8.804688 35.140625 -5.171875 C 31.535156 -1.421875 26.929688 0.453125 21.328125 0.453125 C 15.710938 0.453125 11.101562 -1.421875 7.5 -5.171875 C 3.976562 -8.804688 2.21875 -13.351562 2.21875 -18.8125 C 2.21875 -24.28125 3.976562 -28.832031 7.5 -32.46875 C 11.101562 -36.21875 15.710938 -38.09375 21.328125 -38.09375 Z M 21.328125 -3.703125 C 25.796875 -3.703125 29.414062 -5.160156 32.1875 -8.078125 C 34.832031 -10.878906 36.15625 -14.460938 36.15625 -18.828125 C 36.15625 -23.179688 34.832031 -26.757812 32.1875 -29.5625 C 29.414062 -32.476562 25.796875 -33.9375 21.328125 -33.9375 C 16.847656 -33.9375 13.226562 -32.476562 10.46875 -29.5625 C 7.8125 -26.757812 6.484375 -23.179688 6.484375 -18.828125 C 6.484375 -14.460938 7.8125 -10.878906 10.46875 -8.078125 C 13.226562 -5.160156 16.847656 -3.703125 21.328125 -3.703125 Z M 21.328125 -3.703125 "/></g></g></g><g fill="#f77414" fill-opacity="1"><g transform="translate(756.233899, 421.153131)"><g><path d="M 8.875 -37.640625 L 8.875 -4.09375 L 29.390625 -4.09375 L 29.390625 0 L 4.609375 0 L 4.609375 -37.640625 Z M 8.875 -37.640625 "/></g></g></g><g fill="#f77414" fill-opacity="1"><g transform="translate(791.364315, 421.153131)"><g><path d="M 21.328125 -38.09375 C 26.929688 -38.09375 31.535156 -36.21875 35.140625 -32.46875 C 38.660156 -28.832031 40.421875 -24.28125 40.421875 -18.8125 C 40.421875 -13.351562 38.660156 -8.804688 35.140625 -5.171875 C 31.535156 -1.421875 26.929688 0.453125 21.328125 0.453125 C 15.710938 0.453125 11.101562 -1.421875 7.5 -5.171875 C 3.976562 -8.804688 2.21875 -13.351562 2.21875 -18.8125 C 2.21875 -24.28125 3.976562 -28.832031 7.5 -32.46875 C 11.101562 -36.21875 15.710938 -38.09375 21.328125 -38.09375 Z M 21.328125 -3.703125 C 25.796875 -3.703125 29.414062 -5.160156 32.1875 -8.078125 C 34.832031 -10.878906 36.15625 -14.460938 36.15625 -18.828125 C 36.15625 -23.179688 34.832031 -26.757812 32.1875 -29.5625 C 29.414062 -32.476562 25.796875 -33.9375 21.328125 -33.9375 C 16.847656 -33.9375 13.226562 -32.476562 10.46875 -29.5625 C 7.8125 -26.757812 6.484375 -23.179688 6.484375 -18.828125 C 6.484375 -14.460938 7.8125 -10.878906 10.46875 -8.078125 C 13.226562 -5.160156 16.847656 -3.703125 21.328125 -3.703125 Z M 21.328125 -3.703125 "/></g></g></g></svg>