<svg xmlns="http://www.w3.org/2000/svg" xmlns:xlink="http://www.w3.org/1999/xlink" width="500" zoomAndPan="magnify" viewBox="0 0 375 374.999991" height="500" preserveAspectRatio="xMidYMid meet" version="1.0"><defs><g/><clipPath id="628ee58427"><path d="M 101 154 L 154 154 L 154 197.636719 L 101 197.636719 Z M 101 154 " clip-rule="nonzero"/></clipPath><clipPath id="16557f7715"><path d="M 92 136.886719 L 136 136.886719 L 136 181 L 92 181 Z M 92 136.886719 " clip-rule="nonzero"/></clipPath></defs><g clip-path="url(#628ee58427)"><path fill="#f77414" d="M 119.539062 197.5 C 114.855469 197.5 110.171875 197.523438 105.484375 197.488281 C 103.675781 197.472656 102.136719 196.300781 101.625 194.734375 C 101.046875 192.976562 101.507812 191.035156 103.035156 190.085938 C 103.902344 189.550781 105.0625 189.273438 106.09375 189.265625 C 114.539062 189.199219 122.980469 189.253906 131.421875 189.210938 C 138 189.179688 143.199219 184.835938 144.5 178.410156 C 146.097656 170.511719 140.035156 162.917969 131.9375 162.792969 C 126.109375 162.699219 120.28125 162.773438 114.453125 162.765625 C 112.660156 162.765625 111.3125 161.976562 110.492188 160.371094 C 109.757812 158.933594 109.757812 157.359375 110.863281 156.265625 C 111.75 155.378906 113.121094 154.492188 114.296875 154.472656 C 120.769531 154.363281 127.269531 154.210938 133.722656 154.660156 C 142.929688 155.300781 150.589844 162.320312 152.582031 171.308594 C 155.550781 184.675781 145.5 197.351562 131.792969 197.496094 C 127.710938 197.535156 123.625 197.5 119.539062 197.5 Z M 119.539062 197.5 " fill-opacity="1" fill-rule="nonzero"/></g><g clip-path="url(#16557f7715)"><path fill="#f77414" d="M 122.242188 179.835938 C 118.433594 179.835938 114.582031 180.214844 110.832031 179.761719 C 101.660156 178.652344 93.75 170.226562 92.78125 161.023438 C 91.753906 151.207031 97.511719 141.832031 106.492188 138.4375 C 110.542969 136.90625 114.703125 136.894531 118.890625 137.058594 C 121.121094 137.144531 122.734375 139.070312 122.71875 141.203125 C 122.703125 143.335938 121.082031 145.15625 118.863281 145.347656 C 117.347656 145.480469 115.816406 145.398438 114.289062 145.40625 C 106.933594 145.460938 101.101562 150.980469 101.015625 158.308594 C 100.921875 165.839844 106.625 171.40625 113.480469 171.695312 C 119.027344 171.925781 124.59375 171.769531 130.148438 171.792969 C 130.800781 171.796875 131.460938 171.792969 132.105469 171.878906 C 134.300781 172.175781 135.898438 174.066406 135.769531 176.160156 C 135.636719 178.289062 133.894531 180.066406 131.722656 180.113281 C 128.5625 180.171875 125.402344 180.128906 122.242188 180.128906 C 122.242188 180.03125 122.242188 179.933594 122.242188 179.835938 Z M 122.242188 179.835938 " fill-opacity="1" fill-rule="nonzero"/></g><g fill="#f77414" fill-opacity="1"><g transform="translate(163.489477, 181.849426)"><g><path d="M 7.984375 -28.53125 C 7.347656 -27.96875 6.914062 -27.347656 6.6875 -26.671875 C 6.46875 -25.992188 6.359375 -25.269531 6.359375 -24.5 C 6.359375 -23.738281 6.6875 -23.035156 7.34375 -22.390625 C 8.007812 -21.753906 8.882812 -21.210938 9.96875 -20.765625 C 11.0625 -20.328125 12.300781 -19.9375 13.6875 -19.59375 C 15.082031 -19.257812 16.5 -18.910156 17.9375 -18.546875 C 19.382812 -18.191406 20.800781 -17.785156 22.1875 -17.328125 C 23.582031 -16.867188 24.820312 -16.285156 25.90625 -15.578125 C 28.320312 -14.046875 29.53125 -11.957031 29.53125 -9.3125 C 29.53125 -6.15625 28.347656 -3.742188 25.984375 -2.078125 C 23.628906 -0.421875 20.363281 0.40625 16.1875 0.40625 C 11.46875 0.40625 7.867188 -0.578125 5.390625 -2.546875 C 3.191406 -4.304688 1.9375 -6.816406 1.625 -10.078125 L 5.59375 -10.078125 C 5.726562 -7.773438 6.847656 -6.007812 8.953125 -4.78125 C 10.785156 -3.726562 13.210938 -3.203125 16.234375 -3.203125 C 22.546875 -3.203125 25.703125 -5.1875 25.703125 -9.15625 C 25.703125 -10.519531 25.132812 -11.59375 24 -12.375 C 22.863281 -13.15625 21.4375 -13.796875 19.71875 -14.296875 C 18.007812 -14.804688 16.160156 -15.28125 14.171875 -15.71875 C 12.191406 -16.164062 10.34375 -16.738281 8.625 -17.4375 C 6.914062 -18.132812 5.488281 -19.050781 4.34375 -20.1875 C 3.207031 -21.320312 2.640625 -22.859375 2.640625 -24.796875 C 2.640625 -27.546875 3.691406 -29.785156 5.796875 -31.515625 C 7.898438 -33.242188 11.078125 -34.109375 15.328125 -34.109375 C 19.597656 -34.109375 22.90625 -33.125 25.25 -31.15625 C 27.382812 -29.425781 28.519531 -27.203125 28.65625 -24.484375 L 24.734375 -24.484375 C 24.398438 -27.265625 22.601562 -29.113281 19.34375 -30.03125 C 18.1875 -30.375 16.75 -30.546875 15.03125 -30.546875 C 13.320312 -30.546875 11.878906 -30.347656 10.703125 -29.953125 C 9.535156 -29.566406 8.628906 -29.09375 7.984375 -28.53125 Z M 7.984375 -28.53125 "/></g></g></g><g fill="#f77414" fill-opacity="1"><g transform="translate(199.116926, 181.849426)"><g><path d="M 19.09375 -34.109375 C 24.113281 -34.109375 28.234375 -32.425781 31.453125 -29.0625 C 34.609375 -25.8125 36.1875 -21.738281 36.1875 -16.84375 C 36.1875 -11.957031 34.609375 -7.882812 31.453125 -4.625 C 28.234375 -1.269531 24.113281 0.40625 19.09375 0.40625 C 14.070312 0.40625 9.945312 -1.269531 6.71875 -4.625 C 3.5625 -7.882812 1.984375 -11.957031 1.984375 -16.84375 C 1.984375 -21.738281 3.5625 -25.8125 6.71875 -29.0625 C 9.945312 -32.425781 14.070312 -34.109375 19.09375 -34.109375 Z M 19.09375 -3.3125 C 23.09375 -3.3125 26.332031 -4.617188 28.8125 -7.234375 C 31.1875 -9.742188 32.375 -12.945312 32.375 -16.84375 C 32.375 -20.75 31.1875 -23.957031 28.8125 -26.46875 C 26.332031 -29.082031 23.09375 -30.390625 19.09375 -30.390625 C 15.082031 -30.390625 11.835938 -29.082031 9.359375 -26.46875 C 6.984375 -23.957031 5.796875 -20.75 5.796875 -16.84375 C 5.796875 -12.945312 6.984375 -9.742188 9.359375 -7.234375 C 11.835938 -4.617188 15.082031 -3.3125 19.09375 -3.3125 Z M 19.09375 -3.3125 "/></g></g></g><g fill="#f77414" fill-opacity="1"><g transform="translate(241.615145, 181.849426)"><g><path d="M 7.9375 -33.703125 L 7.9375 -3.671875 L 26.3125 -3.671875 L 26.3125 0 L 4.125 0 L 4.125 -33.703125 Z M 7.9375 -33.703125 "/></g></g></g><g fill="#f77414" fill-opacity="1"><g transform="translate(273.069246, 181.849426)"><g><path d="M 19.09375 -34.109375 C 24.113281 -34.109375 28.234375 -32.425781 31.453125 -29.0625 C 34.609375 -25.8125 36.1875 -21.738281 36.1875 -16.84375 C 36.1875 -11.957031 34.609375 -7.882812 31.453125 -4.625 C 28.234375 -1.269531 24.113281 0.40625 19.09375 0.40625 C 14.070312 0.40625 9.945312 -1.269531 6.71875 -4.625 C 3.5625 -7.882812 1.984375 -11.957031 1.984375 -16.84375 C 1.984375 -21.738281 3.5625 -25.8125 6.71875 -29.0625 C 9.945312 -32.425781 14.070312 -34.109375 19.09375 -34.109375 Z M 19.09375 -3.3125 C 23.09375 -3.3125 26.332031 -4.617188 28.8125 -7.234375 C 31.1875 -9.742188 32.375 -12.945312 32.375 -16.84375 C 32.375 -20.75 31.1875 -23.957031 28.8125 -26.46875 C 26.332031 -29.082031 23.09375 -30.390625 19.09375 -30.390625 C 15.082031 -30.390625 11.835938 -29.082031 9.359375 -26.46875 C 6.984375 -23.957031 5.796875 -20.75 5.796875 -16.84375 C 5.796875 -12.945312 6.984375 -9.742188 9.359375 -7.234375 C 11.835938 -4.617188 15.082031 -3.3125 19.09375 -3.3125 Z M 19.09375 -3.3125 "/></g></g></g></svg>