<svg xmlns="http://www.w3.org/2000/svg" xmlns:xlink="http://www.w3.org/1999/xlink" width="68" zoomAndPan="magnify" viewBox="0 0 50.879997 50.999998" height="68" preserveAspectRatio="xMidYMid meet" version="1.0"><defs><clipPath id="b34eb9eba8"><path d="M 12 17 L 46 17 L 46 45.292969 L 12 45.292969 Z M 12 17 " clip-rule="nonzero"/></clipPath><clipPath id="dbc534f4fc"><path d="M 6.03125 5.636719 L 35 5.636719 L 35 34 L 6.03125 34 Z M 6.03125 5.636719 " clip-rule="nonzero"/></clipPath><clipPath id="59f148f561"><path d="M 4 5.460938 L 38 5.460938 L 38 34 L 4 34 Z M 4 5.460938 " clip-rule="nonzero"/></clipPath><clipPath id="43302d77d5"><path d="M 15 16 L 44 16 L 44 45.117188 L 15 45.117188 Z M 15 16 " clip-rule="nonzero"/></clipPath></defs><g clip-path="url(#b34eb9eba8)"><path fill="#f77414" d="M 24.113281 45.078125 C 21.066406 45.078125 18.019531 45.097656 14.96875 45.070312 C 13.792969 45.0625 12.789062 44.300781 12.457031 43.28125 C 12.082031 42.136719 12.378906 40.875 13.375 40.253906 C 13.9375 39.90625 14.695312 39.726562 15.367188 39.722656 C 20.859375 39.679688 26.351562 39.714844 31.847656 39.6875 C 36.128906 39.664062 39.507812 36.839844 40.355469 32.65625 C 41.398438 27.519531 37.453125 22.574219 32.183594 22.492188 C 28.390625 22.433594 24.597656 22.480469 20.804688 22.476562 C 19.636719 22.476562 18.761719 21.960938 18.226562 20.917969 C 17.746094 19.984375 17.75 18.957031 18.46875 18.246094 C 19.046875 17.671875 19.9375 17.09375 20.703125 17.078125 C 24.917969 17.007812 29.144531 16.910156 33.34375 17.203125 C 39.335938 17.617188 44.320312 22.1875 45.617188 28.035156 C 47.546875 36.734375 41.007812 44.984375 32.085938 45.078125 C 29.429688 45.105469 26.773438 45.078125 24.113281 45.078125 Z M 24.113281 45.078125 " fill-opacity="1" fill-rule="nonzero"/></g><g clip-path="url(#dbc534f4fc)"><path fill="#f77414" d="M 25.871094 33.585938 C 23.394531 33.585938 20.886719 33.832031 18.449219 33.539062 C 12.480469 32.816406 7.332031 27.332031 6.703125 21.34375 C 6.03125 14.957031 9.777344 8.855469 15.625 6.644531 C 18.257812 5.648438 20.96875 5.640625 23.691406 5.746094 C 25.144531 5.804688 26.195312 7.054688 26.183594 8.445312 C 26.171875 9.832031 25.117188 11.019531 23.675781 11.144531 C 22.6875 11.226562 21.691406 11.175781 20.699219 11.179688 C 15.910156 11.21875 12.117188 14.808594 12.058594 19.578125 C 12 24.476562 15.710938 28.097656 20.171875 28.285156 C 23.78125 28.4375 27.402344 28.335938 31.019531 28.351562 C 31.441406 28.351562 31.871094 28.351562 32.289062 28.40625 C 33.71875 28.601562 34.761719 29.828125 34.675781 31.195312 C 34.589844 32.578125 33.457031 33.738281 32.042969 33.765625 C 29.988281 33.804688 27.929688 33.773438 25.875 33.773438 C 25.875 33.710938 25.875 33.648438 25.871094 33.585938 Z M 25.871094 33.585938 " fill-opacity="1" fill-rule="nonzero"/></g><g clip-path="url(#59f148f561)"><path fill="#f77414" d="M 26.023438 5.671875 C 29.070312 5.671875 32.121094 5.65625 35.167969 5.683594 C 36.347656 5.691406 37.347656 6.453125 37.683594 7.472656 C 38.058594 8.617188 37.757812 9.878906 36.761719 10.5 C 36.199219 10.847656 35.445312 11.027344 34.773438 11.03125 C 29.277344 11.074219 23.785156 11.039062 18.292969 11.066406 C 14.011719 11.089844 10.628906 13.914062 9.78125 18.09375 C 8.742188 23.234375 12.6875 28.179688 17.957031 28.261719 C 21.746094 28.320312 25.542969 28.273438 29.332031 28.277344 C 30.5 28.277344 31.378906 28.792969 31.914062 29.835938 C 32.390625 30.769531 32.390625 31.796875 31.671875 32.507812 C 31.09375 33.082031 30.199219 33.660156 29.4375 33.675781 C 25.222656 33.746094 20.992188 33.84375 16.792969 33.550781 C 10.800781 33.136719 5.820312 28.566406 4.519531 22.71875 C 2.589844 14.019531 9.132812 5.769531 18.050781 5.675781 C 20.707031 5.648438 23.367188 5.671875 26.023438 5.671875 Z M 26.023438 5.671875 " fill-opacity="1" fill-rule="nonzero"/></g><g clip-path="url(#43302d77d5)"><path fill="#f77414" d="M 24.265625 17.167969 C 26.742188 17.167969 29.25 16.921875 31.691406 17.214844 C 37.660156 17.9375 42.808594 23.421875 43.433594 29.410156 C 44.105469 35.796875 40.359375 41.898438 34.515625 44.109375 C 31.878906 45.105469 29.171875 45.109375 26.445312 45.003906 C 24.996094 44.949219 23.945312 43.695312 23.957031 42.308594 C 23.964844 40.921875 25.019531 39.734375 26.464844 39.609375 C 27.449219 39.527344 28.445312 39.578125 29.441406 39.574219 C 34.226562 39.535156 38.019531 35.945312 38.078125 31.175781 C 38.140625 26.277344 34.429688 22.652344 29.964844 22.46875 C 26.355469 22.316406 22.734375 22.417969 19.121094 22.402344 C 18.695312 22.398438 18.265625 22.402344 17.847656 22.347656 C 16.417969 22.152344 15.378906 20.921875 15.460938 19.558594 C 15.546875 18.175781 16.683594 17.015625 18.09375 16.988281 C 20.152344 16.949219 22.207031 16.980469 24.265625 16.980469 C 24.265625 17.042969 24.265625 17.105469 24.265625 17.167969 Z M 24.265625 17.167969 " fill-opacity="1" fill-rule="nonzero"/></g></svg>